<svg xmlns="http://www.w3.org/2000/svg" width="113.03" height="108.285" viewBox="0 0 113.03 108.285"><defs><style>.a{fill:#ff6505;}</style></defs><g transform="translate(0 -1)"><path class="a" d="M52.554,66.293c-4.587,0-9.9-1.45-16-4.347-6.81-3.231-10.092-3.118-12.263-3.014-1.747.052-3.57.137-5.369-1.662-.631-.631-3.5-4.069,2.138-9.706,2.811-2.811,6.668-3.621,10.017-3.669L11.55,24.371a6.844,6.844,0,0,1,.014-9.7,6.855,6.855,0,0,1,4.851-2.02h.009a6.785,6.785,0,0,1,4.841,2.011l8.109,8.114a6.735,6.735,0,0,1,1.286-1.771,6.839,6.839,0,0,1,6.885-1.7,6.866,6.866,0,0,1,10.944-2.91,6.754,6.754,0,0,1,1.29-1.79,6.867,6.867,0,0,1,9.7-.014L72.2,27.3c7.982,7.978,7.092,19.543-2.171,28.811l-.061.061L64.7,61.433a16.575,16.575,0,0,1-12.15,4.86Zm-26.989-12.1c2.571,0,6.522.424,13.007,3.494,14.057,6.673,19.755,3.433,22.826.4l5.3-5.3a.443.443,0,0,1,.047-.047c5.613-5.679,9.461-14.773,2.162-22.072L56.156,17.919A2.161,2.161,0,0,0,53.1,20.971l0,0,3.179,3.179a2.356,2.356,0,0,1-3.329,3.334l-7.417-7.417a2.16,2.16,0,0,0-3.052,3.056l5.3,5.3a2.356,2.356,0,0,1-3.329,3.334l-7.417-7.417a2.164,2.164,0,0,0-3.678,1.545,2.119,2.119,0,0,0,.622,1.507l5.3,5.3a2.356,2.356,0,1,1-3.329,3.334L17.931,18.018a2.128,2.128,0,0,0-1.512-.631,2.187,2.187,0,0,0-2.166,2.166,2.123,2.123,0,0,0,.626,1.512l24.37,24.37a2.344,2.344,0,0,1,.358,2.863,2.375,2.375,0,0,1-2.689,1.06c-.089-.024-8.524-2.444-12.536,1.559-1.822,1.827-2.091,2.948-2.044,3.2.2.137.245.188,1.761.127.438-.028.923-.047,1.465-.047ZM51.456,16.271h0Z" transform="translate(35.401 42.992)"/><path class="a" d="M87.121,33.965H16.482A16.482,16.482,0,0,1,16.482,1H87.121a16.482,16.482,0,0,1,0,32.965ZM16.482,5.709a11.773,11.773,0,1,0,0,23.546H87.121a11.773,11.773,0,1,0,0-23.546Z" transform="translate(0 0)"/><path class="a" d="M10.064,17.128a7.064,7.064,0,1,1,7.064-7.064A7.073,7.073,0,0,1,10.064,17.128Zm0-9.419a2.355,2.355,0,1,0,2.355,2.355A2.359,2.359,0,0,0,10.064,7.709Z" transform="translate(11.128 7.419)"/><path class="a" d="M15.064,17.128a7.064,7.064,0,1,1,7.064-7.064A7.073,7.073,0,0,1,15.064,17.128Zm0-9.419a2.355,2.355,0,1,0,2.355,2.355A2.359,2.359,0,0,0,15.064,7.709Z" transform="translate(29.674 7.419)"/><path class="a" d="M35.32,39.965H16.482A16.482,16.482,0,0,1,16.482,7H87.121A16.5,16.5,0,0,1,103.6,23.482a2.355,2.355,0,1,1-4.709,0A11.787,11.787,0,0,0,87.121,11.709H16.482a11.773,11.773,0,1,0,0,23.546H35.32a2.355,2.355,0,1,1,0,4.709Z" transform="translate(0 22.256)"/><path class="a" d="M10.064,23.128a7.064,7.064,0,1,1,7.064-7.064A7.073,7.073,0,0,1,10.064,23.128Zm0-9.419a2.355,2.355,0,1,0,2.355,2.355A2.359,2.359,0,0,0,10.064,13.709Z" transform="translate(11.128 29.674)"/><path class="a" d="M15.064,23.128a7.064,7.064,0,1,1,7.064-7.064A7.073,7.073,0,0,1,15.064,23.128Zm0-9.419a2.355,2.355,0,1,0,2.355,2.355A2.359,2.359,0,0,0,15.064,13.709Z" transform="translate(29.674 29.674)"/><path class="a" d="M44.738,45.965H16.482a16.482,16.482,0,0,1,0-32.965H35.32a2.355,2.355,0,1,1,0,4.709H16.482a11.773,11.773,0,0,0,0,23.546H44.738a2.355,2.355,0,1,1,0,4.709Z" transform="translate(0 44.511)"/><path class="a" d="M10.064,29.128a7.064,7.064,0,1,1,7.064-7.064A7.073,7.073,0,0,1,10.064,29.128Zm0-9.419a2.355,2.355,0,1,0,2.355,2.355A2.359,2.359,0,0,0,10.064,19.709Z" transform="translate(11.128 51.93)"/></g></svg>