<svg xmlns="http://www.w3.org/2000/svg" xmlns:xlink="http://www.w3.org/1999/xlink" width="60.136" height="39.541" viewBox="0 0 60.136 39.541"><defs><style>.a{fill:none;}.b{clip-path:url(#a);}.c{fill:#fff;}</style><clipPath id="a"><rect class="a" width="60.136" height="39.541"/></clipPath></defs><g class="b"><path class="c" d="M1.425,93.132a.132.132,0,0,1-.086-.165.126.126,0,0,1,.105-.092l8.214-.264a1.277,1.277,0,0,0-.076-2.526l-8.263-.772a.132.132,0,0,1-.106-.153.137.137,0,0,1,.1-.1L9.5,87.743a1.276,1.276,0,0,0-.076-2.526l-8.216.263a.135.135,0,0,1-.033-.257l10.351-2.99a.1.1,0,0,1,.029-.006c3.17-.093,5.856,2.79,5.966,6.42s-2.394,6.692-5.564,6.8l-.027,0Z" transform="translate(-0.749 -55.908)"/><path class="c" d="M55.476,5.339c4.217.571,4.073-2.612,4.073-2.612S59.9-.4,55.476.042C53.38.251,36.427,1.88,29.244,1.725S2.066,1.1,1.467,1.1c-1.308,0-2.5.924-.018,2.46,0,0,4.75,2.1,19.288,2.888C26.266,6,24.056,3.664,29.243,3.664c0,.008,18.962.691,26.233,1.675" transform="translate(0 0)"/><path class="c" d="M38.039,42.66c3.653,1.834,6.744,4.857,13.084,4.857s9.61-2.95,9.61-6.621-3.27-6.629-9.61-6.629-9.429,3.015-13.084,4.85-22.985-.194-29.309-.891c-6.584-.721-7.856.108-7.856,2.662s1.272,3.382,7.856,2.66c6.325-.691,25.656-2.724,29.309-.888" transform="translate(-0.596 -23.299)"/><path class="c" d="M80.82,91.351c-7.9.153-19.739,3.171-31.971,2.127a21.148,21.148,0,0,1-5.145-.985v5a21.131,21.131,0,0,1,5.144-.984c12.23-1.044,24.075,1.973,31.973,2.136,8.108.167,8.543-1.821,8.543-3.649s-.441-3.816-8.543-3.649" transform="translate(-29.808 -62.106)"/></g></svg>