<svg xmlns="http://www.w3.org/2000/svg" width="121.589" height="121.469" viewBox="0 0 121.589 121.469"><defs><style>.a{fill:#ff6505;stroke:#ff6505;}</style></defs><g transform="translate(0.5 0.538)"><path class="a" d="M119.713,43.489,106.245,8.471A12.85,12.85,0,0,0,89.637,1.106l-.287.111-67.306,27.9a12.786,12.786,0,0,0-7.1,16.361l1.851,4.939H12.545A12.56,12.56,0,0,0,0,62.967v45.163a12.56,12.56,0,0,0,12.545,12.545H97.852A12.56,12.56,0,0,0,110.4,108.129V62.967a12.332,12.332,0,0,0-.181-2.032l2.326-.944a12.894,12.894,0,0,0,7.169-16.5ZM12.545,54.437H97.852a8.519,8.519,0,0,1,8.481,8.029H4.064a8.519,8.519,0,0,1,8.481-8.029ZM32.719,42.345l13.416-6.711,2.758,6.9L35.478,49.242Zm73.665,65.784a8.541,8.541,0,0,1-8.53,8.53H12.545a8.541,8.541,0,0,1-8.53-8.53V82.54H106.383Zm0-29.607H4.014V66.48H106.383Zm4.659-22.24-2.1.849A12.551,12.551,0,0,0,97.853,50.42H42.094L52.341,45.3a2.007,2.007,0,0,0,.967-2.541L49.051,32.12A2.007,2.007,0,0,0,46.442,31q-.078.031-.153.069L29.272,39.583a2.007,2.007,0,0,0-.966,2.541l3.323,8.3H21.076L18.7,44.084a8.788,8.788,0,0,1,4.882-11.24l67.3-27.9a8.82,8.82,0,0,1,11.521,4.763q.043.105.084.212l13.469,35.018a8.862,8.862,0,0,1-4.917,11.349Z" transform="translate(0 -0.244)"/><path class="a" d="M269.875,374.684a12.043,12.043,0,0,0,12.1,0,12.043,12.043,0,1,0,0-20.825,12.043,12.043,0,1,0-12.1,20.826Zm15.455-17.945a8.03,8.03,0,1,1,0,15.079A12,12,0,0,0,285.33,356.739Zm-3.356,2.284a7.882,7.882,0,0,1,0,10.51,7.882,7.882,0,0,1,0-10.514Zm-6.022-2.769a7.945,7.945,0,0,1,2.665.49,12,12,0,0,0,0,15.079,8.014,8.014,0,1,1-2.665-15.568Z" transform="translate(-197.671 -263.915)"/><rect class="a" width="4.014" height="20.955" transform="translate(86.3 45.092) rotate(-113.966)"/><rect class="a" width="30.462" height="4.012" transform="translate(71.886 37.18) rotate(-24.771)"/></g></svg>