<svg xmlns="http://www.w3.org/2000/svg" width="101.255" height="39.976" viewBox="0 0 101.255 39.976"><defs><style>.a{fill:#fff;}</style></defs><path class="a" d="M39.716,19.858A19.858,19.858,0,1,0,16.755,39.475V25.6H11.713v-5.74h5.042V15.483c0-4.977,2.965-7.726,7.5-7.726a30.54,30.54,0,0,1,4.445.388v4.887H26.2c-2.467,0-3.236,1.531-3.236,3.1v3.725h5.508l-.88,5.74H22.961V39.475A19.863,19.863,0,0,0,39.716,19.858Z"/><path class="a" d="M19.86,0c-5.4,0-6.069.025-8.187.119a14.644,14.644,0,0,0-4.821.923,9.725,9.725,0,0,0-3.518,2.29,9.69,9.69,0,0,0-2.29,3.518,14.6,14.6,0,0,0-.923,4.821C.02,13.791,0,14.464,0,19.86s.025,6.069.119,8.187a14.653,14.653,0,0,0,.923,4.821,9.739,9.739,0,0,0,2.29,3.518,9.712,9.712,0,0,0,3.518,2.29,14.662,14.662,0,0,0,4.821.923c2.118.1,2.792.119,8.187.119s6.069-.025,8.187-.119a14.7,14.7,0,0,0,4.821-.923,10.149,10.149,0,0,0,5.809-5.809,14.653,14.653,0,0,0,.923-4.821c.1-2.118.119-2.792.119-8.187s-.025-6.069-.119-8.187a14.687,14.687,0,0,0-.923-4.821,9.747,9.747,0,0,0-2.29-3.518,9.676,9.676,0,0,0-3.518-2.29A14.61,14.61,0,0,0,28.047.119C25.928.02,25.255,0,19.86,0Zm0,3.575c5.3,0,5.933.026,8.027.118a10.942,10.942,0,0,1,3.686.687,6.535,6.535,0,0,1,3.77,3.768,10.965,10.965,0,0,1,.684,3.686c.094,2.1.116,2.724.116,8.027s-.025,5.933-.122,8.027a11.176,11.176,0,0,1-.7,3.686,6.306,6.306,0,0,1-1.488,2.287,6.2,6.2,0,0,1-2.284,1.483,11.045,11.045,0,0,1-3.7.684c-2.108.094-2.729.116-8.042.116s-5.935-.025-8.042-.122a11.261,11.261,0,0,1-3.7-.7,6.15,6.15,0,0,1-2.282-1.488A6.03,6.03,0,0,1,4.3,31.55a11.271,11.271,0,0,1-.7-3.7c-.074-2.085-.1-2.729-.1-8.017s.026-5.935.1-8.045a11.258,11.258,0,0,1,.7-3.7A5.887,5.887,0,0,1,5.786,5.807,5.874,5.874,0,0,1,8.068,4.321a10.992,10.992,0,0,1,3.676-.7c2.11-.074,2.731-.1,8.042-.1l.074.05Zm0,6.087a10.2,10.2,0,1,0,10.2,10.2A10.2,10.2,0,0,0,19.86,9.662Zm0,16.818a6.62,6.62,0,1,1,6.62-6.62A6.618,6.618,0,0,1,19.86,26.48ZM32.845,9.26a2.383,2.383,0,1,1-2.383-2.382A2.385,2.385,0,0,1,32.845,9.26Z" transform="translate(61.536 0.257)"/></svg>