<svg xmlns="http://www.w3.org/2000/svg" width="50" height="50" viewBox="0 0 50 50"><defs><style>.a{fill:#fff;}.b{fill:#db4437;}</style></defs><g transform="translate(-348 -153)"><circle class="a" cx="25" cy="25" r="25" transform="translate(348 153)"/><path class="b" d="M29.065,15.679c0,8.428-5.771,14.425-14.294,14.425a14.771,14.771,0,1,1,0-29.542,14.2,14.2,0,0,1,9.9,3.865l-4.02,3.865C15.4,3.219,5.617,7.031,5.617,15.333a9.252,9.252,0,0,0,9.154,9.327c5.849,0,8.041-4.193,8.386-6.367H14.771v-5.08H28.833A12.949,12.949,0,0,1,29.065,15.679Z" transform="translate(358.467 163.197)"/></g></svg>