<svg xmlns="http://www.w3.org/2000/svg" width="150.434" height="127.163" viewBox="0 0 150.434 127.163"><defs><style>.a{fill:#ff6505;}</style></defs><path class="a" d="M60.05,75.652c-5.386,0-11.625-1.7-18.789-5.1-8-3.794-11.851-3.661-14.4-3.539-2.051.061-4.192.161-6.3-1.952-.741-.741-4.11-4.778,2.511-11.4,3.3-3.3,7.83-4.252,11.763-4.308L11.9,26.424a8.076,8.076,0,0,1,5.713-13.763h.011a7.967,7.967,0,0,1,5.685,2.361l9.522,9.528a7.909,7.909,0,0,1,1.51-2.08,8.031,8.031,0,0,1,8.085-2,8.063,8.063,0,0,1,12.851-3.417,7.931,7.931,0,0,1,1.515-2.1,8.064,8.064,0,0,1,11.391-.016L83.12,29.863c9.373,9.368,8.328,22.949-2.549,33.832l-.072.072-6.186,6.178a19.464,19.464,0,0,1-14.268,5.707ZM28.358,61.443c3.019,0,7.659.5,15.274,4.1,16.507,7.836,23.2,4.031,26.8.47l6.224-6.224a.521.521,0,0,1,.055-.055c6.591-6.669,11.11-17.348,2.539-25.919L64.28,18.847a2.538,2.538,0,0,0-3.589,3.584h0l3.733,3.733a2.766,2.766,0,1,1-3.909,3.915l-8.709-8.71a2.536,2.536,0,1,0-3.584,3.589l6.224,6.223A2.766,2.766,0,1,1,50.536,35.1l-8.709-8.71A2.541,2.541,0,0,0,37.508,28.2a2.488,2.488,0,0,0,.73,1.77l6.224,6.224a2.766,2.766,0,1,1-3.909,3.915L19.393,18.964a2.5,2.5,0,0,0-1.776-.741,2.568,2.568,0,0,0-2.543,2.543,2.493,2.493,0,0,0,.735,1.776L44.426,51.159a2.752,2.752,0,0,1,.42,3.362,2.789,2.789,0,0,1-3.158,1.245c-.1-.028-10.01-2.87-14.721,1.831-2.14,2.145-2.455,3.462-2.4,3.758.235.161.288.221,2.068.149.514-.033,1.084-.055,1.72-.055Zm30.4-44.531Z" transform="translate(60.935 51.505)"/><path class="a" d="M117.189,39.71H22.171C9.926,39.71,0,31.045,0,20.355S9.926,1,22.171,1h95.019c12.245,0,22.171,8.666,22.171,19.355S129.434,39.71,117.189,39.71ZM22.171,6.53c-8.746,0-15.836,6.19-15.836,13.825s7.09,13.825,15.836,13.825h95.019c8.746,0,15.836-6.19,15.836-13.825S125.935,6.53,117.189,6.53Z" transform="translate(0 -1)"/><path class="a" d="M11.3,19.59a8.3,8.3,0,1,1,8.3-8.3A8.3,8.3,0,0,1,11.3,19.59Zm0-11.061A2.765,2.765,0,1,0,14.061,11.3,2.765,2.765,0,0,0,11.3,8.53Z" transform="translate(13.591 8.061)"/><path class="a" d="M16.3,19.59a8.3,8.3,0,1,1,8.3-8.3A8.3,8.3,0,0,1,16.3,19.59Zm0-11.061A2.765,2.765,0,1,0,19.061,11.3,2.765,2.765,0,0,0,16.3,8.53Z" transform="translate(42.983 8.061)"/><path class="a" d="M47.51,45.71H22.171C9.926,45.71,0,37.045,0,26.355S9.926,7,22.171,7H117.19c12.237.014,22.153,8.672,22.166,19.355a3.2,3.2,0,0,1-6.335,0c-.01-7.63-7.092-13.813-15.832-13.825H22.171c-8.746,0-15.836,6.19-15.836,13.825s7.09,13.825,15.836,13.825H47.51a2.986,2.986,0,0,1,3.168,2.765A2.987,2.987,0,0,1,47.51,45.71Z" transform="translate(0 26.181)"/><path class="a" d="M11.3,25.59a8.3,8.3,0,1,1,8.3-8.3A8.3,8.3,0,0,1,11.3,25.59Zm0-11.061A2.765,2.765,0,1,0,14.061,17.3,2.765,2.765,0,0,0,11.3,14.53Z" transform="translate(13.591 35.24)"/><path class="a" d="M16.3,25.59a8.3,8.3,0,1,1,8.3-8.3A8.3,8.3,0,0,1,16.3,25.59Zm0-11.061A2.765,2.765,0,1,0,19.061,17.3,2.765,2.765,0,0,0,16.3,14.53Z" transform="translate(42.983 35.24)"/><path class="a" d="M52.535,51.71H19.355a19.355,19.355,0,1,1,0-38.71H41.476a2.765,2.765,0,1,1,0,5.53H19.355a13.825,13.825,0,1,0,0,27.65H52.535a2.765,2.765,0,1,1,0,5.53Z" transform="translate(0 53.36)"/><path class="a" d="M11.3,31.59a8.3,8.3,0,1,1,8.3-8.3A8.3,8.3,0,0,1,11.3,31.59Zm0-11.061A2.765,2.765,0,1,0,14.061,23.3,2.765,2.765,0,0,0,11.3,20.53Z" transform="translate(13.591 62.42)"/></svg>