<svg xmlns="http://www.w3.org/2000/svg" width="21.579" height="21.828" viewBox="0 0 21.579 21.828"><defs><style>.a{fill:none;stroke:#f26522;stroke-width:2px;}</style></defs><g transform="translate(1 1)"><path class="a" d="M17.682,3.938h-.047a5.309,5.309,0,0,0-4.471,2.545A5.309,5.309,0,0,0,8.693,3.938H8.646A5.433,5.433,0,0,0,3.375,9.468a12.222,12.222,0,0,0,2.25,6.5,40.092,40.092,0,0,0,7.54,7.552,40.092,40.092,0,0,0,7.54-7.552,12.222,12.222,0,0,0,2.25-6.5A5.433,5.433,0,0,0,17.682,3.938Z" transform="translate(-3.375 -3.938)"/></g></svg>