<svg xmlns="http://www.w3.org/2000/svg" xmlns:xlink="http://www.w3.org/1999/xlink" width="171.632" height="86.179" viewBox="0 0 171.632 86.179"><defs><style>.a{fill:none;}.b{clip-path:url(#a);}.c,.g,.i,.k{fill:#fff;}.d{isolation:isolate;}.e{clip-path:url(#b);}.f{clip-path:url(#c);}.g{font-size:43px;}.g,.i,.k{font-family:Pacifico-Regular, Pacifico;}.h{clip-path:url(#d);}.i{font-size:39px;}.j{clip-path:url(#e);}.k{font-size:42px;}.l{clip-path:url(#f);}.m{clip-path:url(#g);}.n{clip-path:url(#h);}.o{clip-path:url(#i);}</style><clipPath id="a"><rect class="a" width="171.632" height="86.179"/></clipPath><clipPath id="b"><rect class="a" width="136.124" height="61.508"/></clipPath><clipPath id="c"><rect class="a" width="44.261" height="61.508"/></clipPath><clipPath id="d"><rect class="a" width="16.72" height="61.508"/></clipPath><clipPath id="e"><rect class="a" width="15.179" height="61.508"/></clipPath><clipPath id="f"><rect class="a" width="19.711" height="61.508"/></clipPath><clipPath id="g"><rect class="a" width="17.554" height="61.508"/></clipPath><clipPath id="h"><rect class="a" width="8.491" height="61.508"/></clipPath><clipPath id="i"><rect class="a" width="39.068" height="61.508"/></clipPath></defs><g class="b"><path class="c" d="M37.55,80.17a.4.4,0,0,1-.465.329.383.383,0,0,1-.323-.281L32.484,55.274a3.684,3.684,0,0,0-4.388-2.7,3.655,3.655,0,0,0-3.233,4L26.025,82.1a.4.4,0,0,1-.421.386h0a.42.42,0,0,1-.354-.25L17.8,57.792a3.693,3.693,0,0,0-4.388-2.708,3.653,3.653,0,0,0-3.233,4l4.278,24.95a.41.41,0,0,1-.764.208L.25,53.93a.333.333,0,0,1-.031-.086c-1.625-9.631,5.976-19.035,16.926-20.9,10.957-1.833,21.29,4.485,22.964,14.11v.085Z" transform="translate(0 -12.69)"/><path class="c" d="M17.506.053h0c-3.4-.226-6.111.288-5.952,1.137Q16.272,18.062,21,34.958l3.715.245L23.928,2C23.8,1.135,20.9.273,17.506.053" transform="translate(-4.491 0)"/><g class="d" transform="translate(35.508 24.672)"><g class="e"><g class="d"><g class="f"><text class="g" transform="translate(0 35.108)"><tspan x="0" y="0">eal</tspan></text></g></g><g class="d" transform="translate(39.025)"><g class="h"><text class="i" transform="translate(0 34.164)"><tspan x="0" y="0">s</tspan></text></g></g><g class="d" transform="translate(51.432)"><g class="j"><text class="k" transform="translate(0 34.108)"><tspan x="0" y="0">f</tspan></text></g></g><g class="d" transform="translate(61.683)"><g class="l"><text class="g" transform="translate(0 35.108)"><tspan x="0" y="0">o</tspan></text></g></g><g class="d" transform="translate(75.542)"><g class="m"><text class="g" transform="translate(0 35.108)"><tspan x="0" y="0">r</tspan></text></g></g><g class="d" transform="translate(88.609)"><g class="n"><text class="k" transform="translate(0 34.108)"><tspan x="0" y="0">.</tspan></text></g></g><g class="d" transform="translate(97.056)"><g class="o"><text class="g" transform="translate(0 35.108)"><tspan x="0" y="0">me</tspan></text></g></g></g></g></g></svg>