<svg xmlns="http://www.w3.org/2000/svg" width="19.202" height="19.202" viewBox="0 0 19.202 19.202"><defs><style>.a{fill:#f26522;stroke:#f26522;}</style></defs><path class="a" d="M9.1,0C6.628,0,6.32.011,5.349.055A6.711,6.711,0,0,0,3.14.478a4.457,4.457,0,0,0-1.612,1.05A4.441,4.441,0,0,0,.478,3.14,6.691,6.691,0,0,0,.055,5.349C.009,6.32,0,6.628,0,9.1s.011,2.781.055,3.752a6.715,6.715,0,0,0,.423,2.209,4.463,4.463,0,0,0,1.05,1.612,4.45,4.45,0,0,0,1.612,1.05,6.719,6.719,0,0,0,2.209.423c.971.046,1.279.055,3.752.055s2.781-.011,3.752-.055a6.735,6.735,0,0,0,2.209-.423,4.651,4.651,0,0,0,2.662-2.662,6.715,6.715,0,0,0,.423-2.209c.046-.971.055-1.279.055-3.752s-.011-2.781-.055-3.752a6.73,6.73,0,0,0-.423-2.209,4.467,4.467,0,0,0-1.05-1.612A4.434,4.434,0,0,0,15.062.478,6.7,6.7,0,0,0,12.853.055C11.882.009,11.573,0,9.1,0Zm0,1.638c2.429,0,2.719.012,3.678.054a5.014,5.014,0,0,1,1.689.315A2.995,2.995,0,0,1,16.2,3.734a5.025,5.025,0,0,1,.313,1.689c.043.96.053,1.248.053,3.678s-.011,2.719-.056,3.678a5.122,5.122,0,0,1-.319,1.689,2.89,2.89,0,0,1-.682,1.048,2.839,2.839,0,0,1-1.047.68,5.062,5.062,0,0,1-1.7.313c-.966.043-1.251.053-3.685.053s-2.72-.011-3.685-.056a5.161,5.161,0,0,1-1.7-.319A2.818,2.818,0,0,1,2.651,15.5a2.763,2.763,0,0,1-.683-1.047,5.165,5.165,0,0,1-.319-1.7c-.034-.956-.046-1.251-.046-3.674S1.616,6.37,1.65,5.4a5.159,5.159,0,0,1,.319-1.694,2.7,2.7,0,0,1,.683-1.047A2.692,2.692,0,0,1,3.7,1.98a5.037,5.037,0,0,1,1.684-.319c.967-.034,1.251-.046,3.685-.046l.034.023Zm0,2.789A4.673,4.673,0,1,0,13.774,9.1,4.673,4.673,0,0,0,9.1,4.428Zm0,7.707A3.034,3.034,0,1,1,12.135,9.1,3.033,3.033,0,0,1,9.1,12.134Zm5.95-7.891a1.092,1.092,0,1,1-1.092-1.091A1.093,1.093,0,0,1,15.051,4.243Z" transform="translate(0.5 0.5)"/></svg>