<svg xmlns="http://www.w3.org/2000/svg" width="79" height="79" viewBox="0 0 79 79"><defs><style>.a{fill:#fff;stroke:#ffba00;stroke-width:3px;}.b{stroke:none;}.c{fill:none;}</style></defs><g transform="translate(-254 -618)"><g class="a" transform="translate(254 618)"><circle class="b" cx="39.5" cy="39.5" r="39.5"/><circle class="c" cx="39.5" cy="39.5" r="38"/></g><g transform="translate(265 544.095)"><g transform="translate(0 96)"><g transform="translate(0 0)"><path d="M55.639,108.881l1.394-.234V96H0v12.647l1.394.234a5.012,5.012,0,0,1,0,9.883L0,119v12.647H57.033V119l-1.394-.234a5.012,5.012,0,0,1,0-9.883ZM53.691,121.7v6.6H41.438v-2.729H38.1V128.3H3.342v-6.6a8.358,8.358,0,0,0,0-15.759v-6.6H38.1v2.729h3.342V99.342H53.691v6.6a8.358,8.358,0,0,0,0,15.759Z" transform="translate(0 -96)"/></g></g><g transform="translate(38.096 115.549)"><g transform="translate(0 0)"><rect width="3.342" height="6.684"/></g></g><g transform="translate(38.096 105.413)"><g transform="translate(0 0)"><rect width="3.342" height="6.684"/></g></g></g></g></svg>