<svg xmlns="http://www.w3.org/2000/svg" width="92.211" height="108.285" viewBox="0 0 92.211 108.285"><defs><style>.a{fill:#ff6505;}</style></defs><path class="a" d="M200.665,180.917a5.662,5.662,0,0,0,4.03-1.67,2.115,2.115,0,0,0-2.991-2.991,1.468,1.468,0,0,1-2.077,0,2.115,2.115,0,1,0-2.991,2.991A5.662,5.662,0,0,0,200.665,180.917Zm0,0" transform="translate(-154.56 -138.491)"/><path class="a" d="M110.216,443.918h-16.1a2.115,2.115,0,1,0,0,4.23h16.1a2.115,2.115,0,1,0,0-4.23Zm0,0" transform="translate(-72.543 -350.032)"/><path class="a" d="M86.29,87.6V67.515a2.142,2.142,0,0,0-.026-.311A14.947,14.947,0,0,0,74.538,53.413L57.025,49.571V47.689a18.856,18.856,0,0,0,7.946-15.376V18.865a18.865,18.865,0,1,0-37.73,0V32.313a18.856,18.856,0,0,0,7.946,15.376v1.882L17.673,53.413A14.947,14.947,0,0,0,5.947,67.2a2.139,2.139,0,0,0-.026.311V87.6A8.738,8.738,0,0,0,0,95.86v3.7a8.738,8.738,0,0,0,7.388,8.622,2.1,2.1,0,0,0,.649.1H84.175a2.1,2.1,0,0,0,.649-.1,8.738,8.738,0,0,0,7.388-8.622v-3.7A8.739,8.739,0,0,0,86.29,87.6Zm-9.926,16.455H15.848a5.838,5.838,0,0,0,.226-1.6V92.969a5.841,5.841,0,0,0-5.833-5.833h-.088V69.63H33.839V84.622a2.115,2.115,0,0,0,3.61,1.5l3.581-3.581,3.581,3.581a2.114,2.114,0,0,0,2.991,0l3.581-3.581,3.581,3.581a2.115,2.115,0,0,0,3.61-1.5V69.63H82.06V87.136h-.088a5.841,5.841,0,0,0-5.833,5.833v9.483A5.838,5.838,0,0,0,76.363,104.055ZM39.483,50.176a2.1,2.1,0,0,0-.067-.2v-.024a18.862,18.862,0,0,0,13.379,0v1.014L48.718,65.4H43.737Zm30.953,6.667V65.4H53.113L56.4,53.764ZM54.142,69.63v9.885L52.677,78.05a2.116,2.116,0,0,0-2.991,0L46.106,81.63,42.525,78.05a2.116,2.116,0,0,0-2.991,0l-1.466,1.466V69.63ZM81.728,65.4H74.666V57.83A10.824,10.824,0,0,1,81.728,65.4ZM46.106,4.23A14.655,14.655,0,0,1,60.685,17.575H31.527A14.655,14.655,0,0,1,46.106,4.23ZM60.283,21.8a5.122,5.122,0,0,1-4.658,3H36.586a5.122,5.122,0,0,1-4.658-3ZM31.47,32.313V27.5a9.289,9.289,0,0,0,5.116,1.53H55.625a9.289,9.289,0,0,0,5.116-1.53v4.808a14.635,14.635,0,1,1-29.27,0Zm4.607,21.393L39.344,65.4H21.775V56.843ZM17.545,57.83V65.4H10.484A10.824,10.824,0,0,1,17.545,57.83ZM8.724,104.055A4.5,4.5,0,0,1,4.23,99.561v-3.7a4.5,4.5,0,0,1,4.494-4.494H10.24a1.606,1.606,0,0,1,1.6,1.6v9.483a1.606,1.606,0,0,1-1.6,1.6Zm79.257-4.494a4.5,4.5,0,0,1-4.494,4.494H81.971a1.606,1.606,0,0,1-1.6-1.6V92.969a1.606,1.606,0,0,1,1.6-1.6h1.516a4.5,4.5,0,0,1,4.494,4.494Zm0,0"/><path class="a" d="M210.115,443.922a2.116,2.116,0,1,0,1.5.62A2.121,2.121,0,0,0,210.115,443.922Zm0,0" transform="translate(-164.009 -350.035)"/></svg>