<svg xmlns="http://www.w3.org/2000/svg" width="108.935" height="108.719" viewBox="0 0 108.935 108.719"><defs><style>.a,.b{fill:#ff6505;}.b{stroke:#ff6505;stroke-width:0.8px;}</style></defs><g transform="translate(-288.065 -1403.566)"><g transform="translate(288.065 1403.566)"><path class="a" d="M95.467,13.467A45.985,45.985,0,0,0,24.958,71.885L2.484,94.242a8.482,8.482,0,0,0,11.989,12L36.934,83.9a45.984,45.984,0,0,0,58.533-70.43Zm-85.5,88.258a2.1,2.1,0,0,1-3.585-1.484,2.08,2.08,0,0,1,.609-1.479L28.946,76.92q.728.8,1.5,1.571c.48.48.97.946,1.468,1.4ZM90.954,73.977a39.6,39.6,0,1,1,0-56A39.642,39.642,0,0,1,90.954,73.977Zm0,0"/></g><g transform="translate(332.392 1419.971)"><path class="b" d="M108.745,0c-2.377,0-4.621,1.682-6.319,4.735a20.348,20.348,0,0,0-2.4,9.605,9.279,9.279,0,0,0,4.67,8.164,2.9,2.9,0,0,1,1.524,2.67l-.24,5.158a.912.912,0,0,0,1.822.085l.24-5.158a4.713,4.713,0,0,0-2.461-4.35,7.455,7.455,0,0,1-3.731-6.569,18.471,18.471,0,0,1,2.172-8.719c1.342-2.413,3.064-3.8,4.725-3.8s3.382,1.384,4.724,3.8a18.47,18.47,0,0,1,2.172,8.719,7.455,7.455,0,0,1-3.731,6.569,4.713,4.713,0,0,0-2.461,4.35l1.519,32.685a2.226,2.226,0,1,1-4.448,0l1.11-23.883a.912.912,0,1,0-1.822-.085L104.7,57.861a4.051,4.051,0,1,0,8.093,0l-1.519-32.685A2.9,2.9,0,0,1,112.8,22.5a9.279,9.279,0,0,0,4.67-8.164,20.35,20.35,0,0,0-2.4-9.605C113.366,1.682,111.122,0,108.745,0Z" transform="translate(-100.024)"/><path class="b" d="M287.033,22.543a8.373,8.373,0,0,0,4.325-7.742L290.7,2.262a2.387,2.387,0,0,0-4.77.179l.246,10.852a.456.456,0,1,1-.911.015l-.112-11.162a2.168,2.168,0,0,0-4.336,0l-.112,11.162a.456.456,0,0,1-.782.314.453.453,0,0,1-.13-.329l.247-10.914a2.327,2.327,0,0,0-4.649-.174l-.659,12.6a8.281,8.281,0,0,0,4.323,7.746,2.888,2.888,0,0,1,1.46,2.662l-.9,19.337a.912.912,0,1,0,1.822.085l.9-19.337a4.724,4.724,0,0,0-2.4-4.346,6.469,6.469,0,0,1-3.379-6.051l.658-12.6a.5.5,0,0,1,1,.038l-.247,10.914a2.28,2.28,0,0,0,2.279,2.332,2.287,2.287,0,0,0,2.28-2.257l.112-11.162a.344.344,0,0,1,.687,0l.112,11.162a2.287,2.287,0,0,0,2.28,2.257A2.28,2.28,0,0,0,288,13.252L287.756,2.4a.563.563,0,0,1,1.125-.042l.656,12.539a6.455,6.455,0,0,1-3.378,6.046,4.713,4.713,0,0,0-2.406,4.341l1.518,32.662A2.226,2.226,0,0,1,283,60.274a2.17,2.17,0,0,1-1.552-.7,2.339,2.339,0,0,1-.626-1.7l.446-9.591a.912.912,0,0,0-1.822-.085L279,57.793a4.173,4.173,0,0,0,1.117,3.03,3.98,3.98,0,0,0,2.85,1.275h.074a4.051,4.051,0,0,0,4.049-4.239L285.575,25.2a2.877,2.877,0,0,1,1.459-2.656Z" transform="translate(-253.534)"/></g></g></svg>