<svg xmlns="http://www.w3.org/2000/svg" xmlns:xlink="http://www.w3.org/1999/xlink" width="91" height="91" viewBox="0 0 91 91"><defs><style>.a{fill:#fff;opacity:0.87;}.b{fill:#ff9400;}.c{filter:url(#a);}</style><filter id="a" x="0" y="0" width="91" height="91" filterUnits="userSpaceOnUse"><feOffset dy="3" input="SourceAlpha"/><feGaussianBlur stdDeviation="3" result="b"/><feFlood flood-opacity="0.161"/><feComposite operator="in" in2="b"/><feComposite in="SourceGraphic"/></filter></defs><g transform="translate(9 6)"><g class="c" transform="matrix(1, 0, 0, 1, -9, -6)"><circle class="a" cx="36.5" cy="36.5" r="36.5" transform="translate(9 6)"/></g><g transform="translate(10.794 18.89)"><path class="b" d="M191.443,185.7a7.189,7.189,0,1,0,6.843,7.18A7.026,7.026,0,0,0,191.443,185.7Z" transform="translate(-166.871 -175.558)"/><path class="b" d="M35.6,115.071a11.353,11.353,0,0,1,0-22.7,11.353,11.353,0,0,1,0,22.7ZM60.754,102.62C54.238,92.161,45.454,86.4,36.047,86.4s-18.191,5.761-24.707,16.22a2.094,2.094,0,0,0,0,2.206c6.516,10.459,15.3,16.22,24.707,16.22s18.181-5.761,24.708-16.22A2.094,2.094,0,0,0,60.754,102.62Z" transform="translate(-11.025 -86.4)"/></g></g></svg>