<svg xmlns="http://www.w3.org/2000/svg" width="109.861" height="109.753" viewBox="0 0 109.861 109.753"><defs><style>.a{fill:#ff6505;stroke:#ff6505;}</style></defs><g transform="translate(0.5 0.292)"><g transform="translate(0 0.243)"><path class="a" d="M108.069,39.283,95.911,7.671A11.6,11.6,0,0,0,80.919,1.022q-.13.05-.259.1L19.9,26.312a11.542,11.542,0,0,0-6.413,14.77l1.671,4.459H11.325A11.338,11.338,0,0,0,0,56.866v40.77a11.338,11.338,0,0,0,11.325,11.325h77.01A11.338,11.338,0,0,0,99.66,97.636V56.866a11.133,11.133,0,0,0-.163-1.834l2.1-.852A11.64,11.64,0,0,0,108.069,39.283ZM11.325,49.166h77.01a7.69,7.69,0,0,1,7.656,7.248H3.669A7.69,7.69,0,0,1,11.325,49.166ZM29.537,38.25l12.111-6.058,2.49,6.228L32.027,44.476Zm66.5,59.386a7.71,7.71,0,0,1-7.7,7.7H11.325a7.71,7.71,0,0,1-7.7-7.7v-23.1H96.036Zm0-26.727H3.624V60.038H96.036Zm4.206-20.077-1.894.766a11.33,11.33,0,0,0-10.013-6.058H38l9.25-4.626a1.812,1.812,0,0,0,.873-2.294l-3.843-9.6a1.812,1.812,0,0,0-2.355-1.01q-.07.028-.138.062L26.425,35.757a1.812,1.812,0,0,0-.872,2.294l3,7.491H19.026l-2.145-5.722a7.933,7.933,0,0,1,4.407-10.147L82.045,4.485a7.962,7.962,0,0,1,10.4,4.3q.039.095.076.191l12.159,31.612A8,8,0,0,1,100.241,50.833Z" transform="translate(0 -0.243)"/><path class="a" d="M269.292,372.5a10.872,10.872,0,0,0,10.923,0,10.872,10.872,0,1,0,0-18.8,10.872,10.872,0,1,0-10.923,18.8ZM283.244,356.3a7.249,7.249,0,1,1,0,13.612A10.829,10.829,0,0,0,283.244,356.3Zm-3.03,2.062a7.115,7.115,0,0,1,0,9.488A7.115,7.115,0,0,1,280.215,358.359Zm-5.436-2.5a7.171,7.171,0,0,1,2.406.442,10.829,10.829,0,0,0,0,13.612,7.235,7.235,0,1,1-2.406-14.054Z" transform="translate(-204.111 -272.504)"/><rect class="a" width="3.624" height="18.917" transform="translate(77.906 40.707) rotate(-113.966)"/><rect class="a" width="27.499" height="3.622" transform="matrix(0.908, -0.419, 0.419, 0.908, 64.894, 33.564)"/></g></g></svg>