<svg xmlns="http://www.w3.org/2000/svg" width="632.151" height="230.927" viewBox="0 0 632.151 230.927"><defs><style>.a{fill:#fdb913;}.b{fill:#fff;font-size:125px;font-family:Pacifico-Regular, Pacifico;}.c{letter-spacing:-0.01em;}.d{letter-spacing:-0.02em;}</style></defs><g transform="translate(-0.032 -0.003)"><path class="a" d="M340.207,401.2a1.149,1.149,0,0,1-1.323.94,1.1,1.1,0,0,1-.923-.8L325.776,330.28c-.905-5.222-6.528-8.7-12.5-7.694s-10.114,6.145-9.208,11.384l3.307,72.728a1.149,1.149,0,0,1-1.2,1.1,1.2,1.2,0,0,1-1.01-.714l-21.219-69.629c-.905-5.222-6.528-8.7-12.5-7.711s-10.114,6.145-9.208,11.4l12.185,71.074a1.166,1.166,0,0,1-2.176.592l-38.3-86.358a1.011,1.011,0,0,1-.087-.244c-4.63-27.434,17.024-54.224,48.218-59.533h0c31.211-5.222,60.647,12.777,65.417,40.193v.244Z" transform="translate(-233.21 -208.97)"/><path class="a" d="M261.763,233.295h0c-9.7-.644-17.407.818-16.955,3.238q13.438,48.062,26.912,96.193h0l10.584.7h0l-2.246-94.591C279.692,236.376,271.441,233.921,261.763,233.295Z" transform="translate(-224.657 -233.14)"/><text class="b" transform="translate(101.183 173.93)"><tspan x="0" y="0">eal</tspan><tspan class="c" y="0">s</tspan><tspan class="d" y="0">f</tspan><tspan y="0">o</tspan><tspan class="d" y="0">r</tspan><tspan class="c" y="0">.</tspan><tspan y="0">me</tspan></text></g></svg>