<svg xmlns="http://www.w3.org/2000/svg" width="36" height="36" viewBox="0 0 36 36"><defs><style>.a{fill:#f26522;}</style></defs><path class="a" d="M21.375,3.375a18,18,0,1,0,18,18A18,18,0,0,0,21.375,3.375Zm4.561,24.516-4.561-4.561-4.561,4.561a1.383,1.383,0,1,1-1.956-1.956l4.561-4.561-4.561-4.561a1.383,1.383,0,1,1,1.956-1.956l4.561,4.561,4.561-4.561a1.383,1.383,0,1,1,1.956,1.956l-4.561,4.561,4.561,4.561a1.389,1.389,0,0,1,0,1.956A1.374,1.374,0,0,1,25.936,27.891Z" transform="translate(-3.375 -3.375)"/></svg>