<svg xmlns="http://www.w3.org/2000/svg" width="50.043" height="34.646" viewBox="0 0 50.043 34.646"><defs><style>.a{fill:#ff9400;}</style></defs><g transform="translate(0 0)"><path class="a" d="M191.443,185.7a7.189,7.189,0,1,0,6.843,7.18A7.026,7.026,0,0,0,191.443,185.7Z" transform="translate(-166.871 -175.558)"/><path class="a" d="M35.6,115.071a11.353,11.353,0,0,1,0-22.7,11.353,11.353,0,0,1,0,22.7ZM60.754,102.62C54.238,92.161,45.454,86.4,36.047,86.4s-18.191,5.761-24.707,16.22a2.094,2.094,0,0,0,0,2.206c6.516,10.459,15.3,16.22,24.707,16.22s18.181-5.761,24.708-16.22A2.094,2.094,0,0,0,60.754,102.62Z" transform="translate(-11.025 -86.4)"/></g></svg>